<?xml version="1.0" encoding="UTF-8" standalone="no"?>
<!-- Generator: Adobe Illustrator 23.0.1, SVG Export Plug-In . SVG Version: 6.00 Build 0)  -->

<svg
   version="1.1"
   x="0px"
   y="0px"
   viewBox="0 0 736 920.00003"
   xml:space="preserve"
   id="svg867"
   width="736"
   height="920"
   xmlns="http://www.w3.org/2000/svg"
   xmlns:svg="http://www.w3.org/2000/svg"><defs
   id="defs867" />
<style
   type="text/css"
   id="style1">
	.st0{fill:#1D1F25;}
	.st1{fill:#E0ECDE;}
	.st2{opacity:0;fill:#EAE9EE;}
	.st3{fill:#EAE9EE;}
	.st4{opacity:0.6;fill:url(#SVGID_1_);}
	.st5{fill:#71C786;}
	.st6{fill:#CB5053;}
	.st7{fill:#2393A7;}
	.st8{fill:#A9B432;}
	.st9{fill:#E9A238;}
	.st10{opacity:0.6;fill:url(#SVGID_2_);}
	.st11{fill:#87DD99;}
	.st12{opacity:0.6;fill:url(#SVGID_3_);}
	.st13{fill:#E2666F;}
	.st14{opacity:0.6;fill:url(#SVGID_4_);}
	.st15{fill:#30B8C6;}
	.st16{opacity:0.6;fill:url(#SVGID_5_);}
	.st17{fill:#C8CE41;}
	.st18{opacity:0.6;fill:url(#SVGID_6_);}
	.st19{fill:#F7B257;}
	.st20{fill:none;stroke:#71C786;stroke-width:0.4899;stroke-miterlimit:10;}
	.st21{fill:url(#SVGID_7_);}
	.st22{fill:#F7F7F7;}
	.st23{fill:#574433;}
	.st24{fill:#A65516;}
	.st25{fill:#CB6511;}
	.st26{fill:#F0B736;}
	.st27{fill:#DCBC89;}
	.st28{opacity:0.6;fill:#F2DCA2;}
	.st29{opacity:0.6;fill:#DBA55F;}
	.st30{fill:#10424B;}
	.st31{fill:url(#SVGID_8_);}
	.st32{fill:url(#SVGID_9_);}
	.st33{fill:#41484E;}
	.st34{opacity:0.4;}
	.st35{fill:url(#SVGID_10_);}
	.st36{fill:url(#SVGID_11_);}
	.st37{fill:url(#SVGID_12_);}
	.st38{fill:url(#SVGID_13_);}
	.st39{fill:url(#SVGID_14_);}
	.st40{fill:none;stroke:#FFFFFF;stroke-width:0.6996;stroke-miterlimit:10;}
	.st41{fill:#636363;}
	.st42{fill:none;stroke:#CB5053;stroke-width:0.4899;stroke-miterlimit:10;}
	.st43{fill:url(#SVGID_15_);}
	.st44{fill:none;stroke:#2393A7;stroke-width:0.4899;stroke-miterlimit:10;}
	.st45{fill:url(#SVGID_16_);}
	.st46{fill:none;stroke:#A9B432;stroke-width:0.4899;stroke-miterlimit:10;}
	.st47{fill:url(#SVGID_17_);}
	.st48{fill:none;stroke:#E9A238;stroke-width:0.4899;stroke-miterlimit:10;}
	.st49{fill:url(#SVGID_18_);}
</style>
<g
   id="Layer_1"
   transform="matrix(0.90671403,0,0,1.0178926,-191.28286,0)">
	
	<g
   id="g34">
		
	</g>
	<rect
   y="1.39"
   class="st2"
   width="1024"
   height="837.46997"
   id="rect34"
   x="0" />
</g>
<g
   id="Layer_2"
   transform="matrix(0.9313556,0,0,1.0953695,-216.52815,0)">
	<g
   id="g867">
		<rect
   x="-0.5"
   class="st3"
   width="1025"
   height="838.28998"
   id="rect35"
   y="0" />
		<g
   id="g866">
			
				<radialGradient
   id="SVGID_1_"
   cx="341.9967"
   cy="742.58319"
   r="141.14191"
   gradientTransform="matrix(1,0,0,0.167,0,618.5392)"
   gradientUnits="userSpaceOnUse">
				<stop
   offset="0"
   style="stop-color:#000000;stop-opacity:0.6"
   id="stop35" />
				<stop
   offset="0.9617"
   style="stop-color:#000000;stop-opacity:0"
   id="stop36" />
			</radialGradient>
			<ellipse
   class="st4"
   cx="342"
   cy="742.58002"
   rx="146.88"
   ry="25.24"
   id="ellipse36"
   style="fill:url(#SVGID_1_)" />
			<path
   class="st5"
   d="m 425.67,262.96 c 12,5.26 22.87,12.56 34.26,19.12 10.58,6.09 22.77,10.3 34.36,13.66 35.92,10.42 59.08,4.78 59.08,4.78 0,0 -0.46,-22.52 14.27,-46.06 10.03,-16.02 12.81,-27.99 13.56,-34 0.21,-1.67 -1.46,-2.82 -2.75,-1.91 -9.3,6.61 -40.75,23.14 -101.97,1.62 C 415.43,198.71 383.17,178.16 342,205.68 v 55.99 c 8.09,-2.89 16.37,-5.09 24.78,-6.44 20.02,-3.22 40.08,-0.52 58.89,7.73 z"
   id="path36" />
			<path
   class="st6"
   d="m 581.2,312.32 c 0.21,-1.67 -1.46,-2.82 -2.75,-1.91 -9.3,6.61 -40.75,23.14 -101.97,1.62 C 415.43,290.57 383.17,270.02 342,297.54 v 55.99 c 8.09,-2.89 16.37,-5.09 24.78,-6.44 20.03,-3.22 40.09,-0.53 58.9,7.72 12,5.26 22.87,12.56 34.26,19.12 10.58,6.09 22.77,10.3 34.36,13.66 35.92,10.42 59.08,4.78 59.08,4.78 0,0 -0.46,-22.52 14.27,-46.06 10.03,-16.01 12.8,-27.98 13.55,-33.99 z"
   id="path37" />
			<path
   class="st7"
   d="m 366.77,438.95 c 20.03,-3.22 40.09,-0.53 58.9,7.72 12,5.26 22.87,12.56 34.26,19.12 10.58,6.09 22.77,10.3 34.36,13.66 35.92,10.42 59.08,4.78 59.08,4.78 0,0 -0.46,-22.52 14.27,-46.06 10.03,-16.02 12.81,-27.99 13.56,-34 0.21,-1.67 -1.46,-2.82 -2.75,-1.91 -9.3,6.61 -40.75,23.14 -101.97,1.62 C 415.43,382.42 383.17,361.87 342,389.39 v 55.99 c 8.09,-2.87 16.36,-5.08 24.77,-6.43 z"
   id="path38" />
			<path
   class="st8"
   d="m 366.77,530.81 c 20.03,-3.22 40.09,-0.53 58.9,7.72 12,5.26 22.87,12.56 34.26,19.12 10.58,6.09 22.77,10.3 34.36,13.66 35.92,10.42 59.08,4.78 59.08,4.78 0,0 -0.46,-22.52 14.27,-46.06 10.03,-16.02 12.81,-27.99 13.56,-34 0.21,-1.67 -1.46,-2.82 -2.75,-1.91 -9.3,6.61 -40.75,23.14 -101.97,1.62 C 415.43,474.28 383.17,453.73 342,481.25 v 55.99 c 8.09,-2.87 16.36,-5.08 24.77,-6.43 z"
   id="path39" />
			<path
   class="st9"
   d="m 366.77,622.66 c 20.03,-3.22 40.09,-0.53 58.9,7.72 12,5.26 22.87,12.56 34.26,19.12 10.58,6.09 22.77,10.3 34.36,13.66 35.92,10.42 59.08,4.78 59.08,4.78 0,0 -0.46,-22.52 14.27,-46.06 10.03,-16.02 12.81,-27.99 13.56,-34 0.21,-1.67 -1.46,-2.82 -2.75,-1.91 -9.3,6.61 -40.75,23.14 -101.97,1.62 C 415.43,566.13 383.17,545.58 342,573.1 v 55.99 c 8.09,-2.87 16.36,-5.07 24.77,-6.43 z"
   id="path40" />
			<linearGradient
   id="SVGID_2_"
   gradientUnits="userSpaceOnUse"
   x1="341.99689"
   y1="247.23351"
   x2="581.21918"
   y2="247.23351">
				<stop
   offset="0"
   style="stop-color:#081D30"
   id="stop40" />
				<stop
   offset="0.5625"
   style="stop-color:#081D30;stop-opacity:0"
   id="stop41" />
			</linearGradient>
			<path
   class="st10"
   d="m 425.67,262.96 c 12,5.26 22.87,12.56 34.26,19.12 10.58,6.09 22.77,10.3 34.36,13.66 35.92,10.42 59.08,4.78 59.08,4.78 0,0 -0.46,-22.52 14.27,-46.06 10.03,-16.02 12.81,-27.99 13.56,-34 0.21,-1.67 -1.46,-2.82 -2.75,-1.91 -9.3,6.61 -40.75,23.14 -101.97,1.62 C 415.43,198.71 383.17,178.16 342,205.68 v 55.99 c 8.09,-2.89 16.37,-5.09 24.78,-6.44 20.02,-3.22 40.08,-0.52 58.89,7.73 z"
   id="path41"
   style="fill:url(#SVGID_2_)" />
			<path
   class="st11"
   d="m 475.41,223.03 c 61.23,21.52 92.67,5 101.97,-1.62 1.29,-0.92 2.96,0.24 2.75,1.91 -0.37,2.98 -1.24,7.42 -3.25,13.1 2.77,-7.05 3.89,-12.5 4.32,-15.96 0.21,-1.67 -1.46,-2.82 -2.75,-1.91 -9.3,6.61 -40.75,23.14 -101.97,1.62 C 415.43,198.71 383.17,178.16 342,205.68 v 2.18 c 40.66,-26.45 72.89,-6.1 133.41,15.17 z"
   id="path42" />
			<linearGradient
   id="SVGID_3_"
   gradientUnits="userSpaceOnUse"
   x1="341.99689"
   y1="339.0918"
   x2="581.21918"
   y2="339.0918">
				<stop
   offset="0"
   style="stop-color:#081D30"
   id="stop42" />
				<stop
   offset="0.5625"
   style="stop-color:#081D30;stop-opacity:0"
   id="stop43" />
			</linearGradient>
			<path
   class="st12"
   d="m 581.2,312.32 c 0.21,-1.67 -1.46,-2.82 -2.75,-1.91 -9.3,6.61 -40.75,23.14 -101.97,1.62 C 415.43,290.57 383.17,270.02 342,297.54 v 55.99 c 8.09,-2.89 16.37,-5.09 24.78,-6.44 20.03,-3.22 40.09,-0.53 58.9,7.72 12,5.26 22.87,12.56 34.26,19.12 10.58,6.09 22.77,10.3 34.36,13.66 35.92,10.42 59.08,4.78 59.08,4.78 0,0 -0.46,-22.52 14.27,-46.06 10.03,-16.01 12.8,-27.98 13.55,-33.99 z"
   id="path43"
   style="fill:url(#SVGID_3_)" />
			<path
   class="st13"
   d="m 475.41,314.89 c 61.23,21.52 92.67,5 101.97,-1.62 1.29,-0.92 2.96,0.24 2.75,1.91 -0.37,2.98 -1.24,7.42 -3.25,13.1 2.77,-7.05 3.89,-12.5 4.32,-15.96 0.21,-1.67 -1.46,-2.82 -2.75,-1.91 -9.3,6.61 -40.75,23.14 -101.97,1.62 C 415.43,290.57 383.17,270.02 342,297.54 v 2.18 c 40.66,-26.45 72.89,-6.1 133.41,15.17 z"
   id="path44" />
			<linearGradient
   id="SVGID_4_"
   gradientUnits="userSpaceOnUse"
   x1="341.99689"
   y1="430.95001"
   x2="581.21918"
   y2="430.95001">
				<stop
   offset="0"
   style="stop-color:#081D30"
   id="stop44" />
				<stop
   offset="0.5625"
   style="stop-color:#081D30;stop-opacity:0"
   id="stop45" />
			</linearGradient>
			<path
   class="st14"
   d="m 366.77,438.95 c 20.03,-3.22 40.09,-0.53 58.9,7.72 12,5.26 22.87,12.56 34.26,19.12 10.58,6.09 22.77,10.3 34.36,13.66 35.92,10.42 59.08,4.78 59.08,4.78 0,0 -0.46,-22.52 14.27,-46.06 10.03,-16.02 12.81,-27.99 13.56,-34 0.21,-1.67 -1.46,-2.82 -2.75,-1.91 -9.3,6.61 -40.75,23.14 -101.97,1.62 C 415.43,382.42 383.17,361.87 342,389.39 v 55.99 c 8.09,-2.87 16.36,-5.08 24.77,-6.43 z"
   id="path45"
   style="fill:url(#SVGID_4_)" />
			<path
   class="st15"
   d="m 475.41,406.75 c 61.23,21.52 92.67,5 101.97,-1.62 1.29,-0.92 2.96,0.24 2.75,1.91 -0.37,2.98 -1.24,7.42 -3.25,13.1 2.77,-7.05 3.89,-12.5 4.32,-15.96 0.21,-1.67 -1.46,-2.82 -2.75,-1.91 -9.3,6.61 -40.75,23.14 -101.97,1.62 C 415.43,382.43 383.17,361.88 342,389.4 v 2.18 c 40.66,-26.45 72.89,-6.11 133.41,15.17 z"
   id="path46" />
			<linearGradient
   id="SVGID_5_"
   gradientUnits="userSpaceOnUse"
   x1="341.99689"
   y1="522.80829"
   x2="581.21918"
   y2="522.80829">
				<stop
   offset="0"
   style="stop-color:#081D30"
   id="stop46" />
				<stop
   offset="0.5625"
   style="stop-color:#081D30;stop-opacity:0"
   id="stop47" />
			</linearGradient>
			<path
   class="st16"
   d="m 366.77,530.81 c 20.03,-3.22 40.09,-0.53 58.9,7.72 12,5.26 22.87,12.56 34.26,19.12 10.58,6.09 22.77,10.3 34.36,13.66 35.92,10.42 59.08,4.78 59.08,4.78 0,0 -0.46,-22.52 14.27,-46.06 10.03,-16.02 12.81,-27.99 13.56,-34 0.21,-1.67 -1.46,-2.82 -2.75,-1.91 -9.3,6.61 -40.75,23.14 -101.97,1.62 C 415.43,474.28 383.17,453.73 342,481.25 v 55.99 c 8.09,-2.87 16.36,-5.08 24.77,-6.43 z"
   id="path47"
   style="fill:url(#SVGID_5_)" />
			<path
   class="st17"
   d="m 475.41,498.6 c 61.23,21.52 92.67,5 101.97,-1.62 1.29,-0.92 2.96,0.24 2.75,1.91 -0.37,2.98 -1.24,7.42 -3.25,13.1 2.77,-7.05 3.89,-12.5 4.32,-15.96 0.21,-1.67 -1.46,-2.82 -2.75,-1.91 -9.3,6.61 -40.75,23.14 -101.97,1.62 C 415.43,474.28 383.17,453.73 342,481.25 v 2.18 c 40.66,-26.45 72.89,-6.1 133.41,15.17 z"
   id="path48" />
			<linearGradient
   id="SVGID_6_"
   gradientUnits="userSpaceOnUse"
   x1="341.99689"
   y1="614.66663"
   x2="581.21918"
   y2="614.66663">
				<stop
   offset="0"
   style="stop-color:#081D30"
   id="stop48" />
				<stop
   offset="0.5625"
   style="stop-color:#081D30;stop-opacity:0"
   id="stop49" />
			</linearGradient>
			<path
   class="st18"
   d="m 366.77,622.66 c 20.03,-3.22 40.09,-0.53 58.9,7.72 12,5.26 22.87,12.56 34.26,19.12 10.58,6.09 22.77,10.3 34.36,13.66 35.92,10.42 59.08,4.78 59.08,4.78 0,0 -0.46,-22.52 14.27,-46.06 10.03,-16.02 12.81,-27.99 13.56,-34 0.21,-1.67 -1.46,-2.82 -2.75,-1.91 -9.3,6.61 -40.75,23.14 -101.97,1.62 C 415.43,566.13 383.17,545.58 342,573.1 v 55.99 c 8.09,-2.87 16.36,-5.07 24.77,-6.43 z"
   id="path49"
   style="fill:url(#SVGID_6_)" />
			<path
   class="st19"
   d="m 475.41,590.46 c 61.23,21.52 92.67,5 101.97,-1.62 1.29,-0.92 2.96,0.24 2.75,1.91 -0.37,2.98 -1.24,7.42 -3.25,13.1 2.77,-7.05 3.89,-12.5 4.32,-15.96 0.21,-1.67 -1.46,-2.82 -2.75,-1.91 -9.3,6.61 -40.75,23.14 -101.97,1.62 C 415.43,566.14 383.17,545.59 342,573.11 v 2.18 c 40.66,-26.45 72.89,-6.1 133.41,15.17 z"
   id="path50" />
			<g
   id="g53"
   transform="translate(128.84446)">
				<circle
   class="st5"
   cx="798.65997"
   cy="261.48001"
   r="21.57"
   id="circle50" />
				<path
   class="st5"
   d="m 781.06,261.48 c 0,-1.57 -2.85,-4.42 -2.85,-2.85 0,1.64 -4.17,1.28 -4.17,2.85 0,1.57 4.17,1.21 4.17,2.85 0,1.57 2.85,-1.28 2.85,-2.85 z"
   id="path51" />
				<line
   class="st20"
   x1="776.03998"
   y1="261.48001"
   x2="745.77002"
   y2="261.48001"
   id="line51" />
				<linearGradient
   id="SVGID_7_"
   gradientUnits="userSpaceOnUse"
   x1="793.53381"
   y1="257.69949"
   x2="824.11908"
   y2="281.42819">
					<stop
   offset="0"
   style="stop-color:#000000"
   id="stop51" />
					<stop
   offset="0.6978"
   style="stop-color:#000000;stop-opacity:0"
   id="stop52" />
				</linearGradient>
				<circle
   class="st21"
   cx="805.62"
   cy="267.07001"
   r="19.35"
   id="circle52"
   style="fill:url(#SVGID_7_)" />
				<path
   class="st5"
   d="m 798.66,291.69 c 16.69,0 30.22,-13.53 30.22,-30.22 0,-16.69 -13.53,-30.22 -30.22,-30.22 -15.73,0 -28.65,12.02 -30.08,27.38 h 6.37 c 1.41,-11.85 11.48,-21.05 23.72,-21.05 13.19,0 23.89,10.7 23.89,23.89 0,13.19 -10.7,23.89 -23.89,23.89 -12.23,0 -22.31,-9.2 -23.72,-21.05 h -6.37 c 1.43,15.36 14.35,27.38 30.08,27.38 z"
   id="path52" />
				<path
   class="st5"
   d="m 744.61,263.89 c -1.28,0 -2.31,-1.04 -2.31,-2.31 0,-1.27 1.04,-2.31 2.31,-2.31 1.27,0 4.01,2.31 4.01,2.31 0,0 -2.73,2.31 -4.01,2.31 z"
   id="path53" />
				<circle
   class="st22"
   cx="798.65997"
   cy="261.48001"
   r="19.35"
   id="circle53" />
			</g>
			<g
   id="g116">
				<path
   class="st23"
   d="m 371.73,497.17 c -7.03,3.52 -16.87,7.59 -28.63,12.65 -24.33,10.47 -41.1,14.11 -41.1,24.51 0,7.12 8.61,12.1 14.04,14.54 21.3,-9.32 59.67,-25.36 62.89,-26.98 1.56,-0.78 3.18,-2.29 4.63,-3.92 0,-0.52 0,-1.03 0,-1.53 0,-10.23 -6.46,-16.13 -11.83,-19.27 z"
   id="path54" />
				<path
   class="st23"
   d="m 371.73,241.31 c -7.03,3.52 -16.87,7.59 -28.63,12.65 -24.33,10.47 -41.1,14.11 -41.1,24.51 0,7.12 8.61,12.1 14.04,14.54 21.3,-9.32 59.67,-25.37 62.89,-26.98 1.56,-0.78 3.18,-2.29 4.63,-3.92 0,-0.52 0,-1.03 0,-1.53 0,-10.23 -6.46,-16.13 -11.83,-19.27 z"
   id="path55" />
				<path
   class="st23"
   d="m 371.73,326.6 c -7.03,3.52 -16.87,7.59 -28.63,12.65 -24.33,10.47 -41.1,14.11 -41.1,24.51 0,7.12 8.61,12.1 14.04,14.54 21.3,-9.32 59.67,-25.37 62.89,-26.98 1.56,-0.78 3.18,-2.29 4.63,-3.92 0,-0.52 0,-1.03 0,-1.53 0,-10.24 -6.46,-16.13 -11.83,-19.27 z"
   id="path56" />
				<path
   class="st23"
   d="m 371.73,411.89 c -7.03,3.52 -16.87,7.59 -28.63,12.65 -24.33,10.47 -41.1,14.11 -41.1,24.51 0,7.12 8.61,12.1 14.04,14.54 21.3,-9.32 59.67,-25.37 62.89,-26.98 1.56,-0.78 3.18,-2.29 4.63,-3.92 0,-0.52 0,-1.03 0,-1.53 0,-10.24 -6.46,-16.13 -11.83,-19.27 z"
   id="path57" />
				<g
   id="g95">
					<polygon
   class="st24"
   points="313.61,132.52 371.95,132.52 371.95,664.67 354.87,669.47 330.68,669.47 313.61,664.67 "
   id="polygon57" />
					<rect
   x="330.67999"
   y="132.52"
   class="st25"
   width="24.190001"
   height="536.96002"
   id="rect57" />
					<polygon
   class="st26"
   points="313.61,132.52 313.61,664.67 330.68,669.47 330.68,132.52 "
   id="polygon58" />
					<path
   class="st27"
   d="m 371.95,664.67 -17.07,4.8 h -24.19 l -17.07,-4.8 25.19,71.3 c 1.36,3.7 6.59,3.7 7.95,0 z"
   id="path58" />
					<path
   class="st28"
   d="m 313.61,664.67 25.19,71.3 c 0.57,1.56 1.83,2.45 3.19,2.69 l -11.31,-69.19 z"
   id="path59" />
					<path
   class="st29"
   d="m 354.87,669.47 -11.31,69.19 c 1.36,-0.25 2.62,-1.14 3.19,-2.69 l 25.19,-71.3 z"
   id="path60" />
					<path
   class="st30"
   d="m 333.33,721.08 5.47,14.89 c 1.36,3.7 6.59,3.7 7.95,0 l 5.47,-14.89 c -3,0.19 -6.17,0.29 -9.45,0.29 -3.27,0 -6.44,-0.1 -9.44,-0.29 z"
   id="path61" />
					<g
   id="g94">
						<linearGradient
   id="SVGID_8_"
   gradientUnits="userSpaceOnUse"
   x1="313.60901"
   y1="120.4735"
   x2="371.94571"
   y2="120.4735">
							<stop
   offset="0"
   style="stop-color:#868485"
   id="stop61" />
							<stop
   offset="0.1793"
   style="stop-color:#FFFFFF"
   id="stop62" />
							<stop
   offset="0.2682"
   style="stop-color:#FFFFFF"
   id="stop63" />
							<stop
   offset="0.3346"
   style="stop-color:#E0E1E2"
   id="stop64" />
							<stop
   offset="0.4666"
   style="stop-color:#A9ACAF"
   id="stop65" />
							<stop
   offset="0.5891"
   style="stop-color:#7D8286"
   id="stop66" />
							<stop
   offset="0.6983"
   style="stop-color:#5D6368"
   id="stop67" />
							<stop
   offset="0.7902"
   style="stop-color:#4A5156"
   id="stop68" />
							<stop
   offset="0.8538"
   style="stop-color:#434A50"
   id="stop69" />
							<stop
   offset="0.8893"
   style="stop-color:#464D53"
   id="stop70" />
							<stop
   offset="0.914"
   style="stop-color:#4F555B"
   id="stop71" />
							<stop
   offset="0.9354"
   style="stop-color:#5E6369"
   id="stop72" />
							<stop
   offset="0.9549"
   style="stop-color:#74777C"
   id="stop73" />
							<stop
   offset="0.9731"
   style="stop-color:#909095"
   id="stop74" />
							<stop
   offset="0.9901"
   style="stop-color:#B2B0B4"
   id="stop75" />
							<stop
   offset="1"
   style="stop-color:#CAC5C9"
   id="stop76" />
						</linearGradient>
						<rect
   x="313.60999"
   y="88.620003"
   class="st31"
   width="58.34"
   height="63.709999"
   id="rect76"
   style="fill:url(#SVGID_8_)" />
						<linearGradient
   id="SVGID_9_"
   gradientUnits="userSpaceOnUse"
   x1="315.45819"
   y1="71.113998"
   x2="370.09659"
   y2="71.113998">
							<stop
   offset="0"
   style="stop-color:#AB4A52"
   id="stop77" />
							<stop
   offset="0.0671"
   style="stop-color:#D06763"
   id="stop78" />
							<stop
   offset="0.1398"
   style="stop-color:#F28372"
   id="stop79" />
							<stop
   offset="0.1793"
   style="stop-color:#FF8D78"
   id="stop80" />
							<stop
   offset="0.2726"
   style="stop-color:#FF8D78"
   id="stop81" />
							<stop
   offset="0.6601"
   style="stop-color:#A84851"
   id="stop82" />
							<stop
   offset="0.8538"
   style="stop-color:#81293F"
   id="stop83" />
							<stop
   offset="0.8955"
   style="stop-color:#832C41"
   id="stop84" />
							<stop
   offset="0.9245"
   style="stop-color:#8B3546"
   id="stop85" />
							<stop
   offset="0.9496"
   style="stop-color:#99444E"
   id="stop86" />
							<stop
   offset="0.9724"
   style="stop-color:#AB5A5B"
   id="stop87" />
							<stop
   offset="0.9936"
   style="stop-color:#C3766A"
   id="stop88" />
							<stop
   offset="1"
   style="stop-color:#CC8070"
   id="stop89" />
						</linearGradient>
						<path
   class="st32"
   d="m 367.94,53.61 h -50.32 c -1.19,0 -2.16,0.97 -2.16,2.16 V 88.62 H 370.1 V 55.77 c 0,-1.2 -0.97,-2.16 -2.16,-2.16 z"
   id="path89"
   style="fill:url(#SVGID_9_)" />
						<rect
   x="313.60999"
   y="103.29"
   class="st33"
   width="58.34"
   height="0.88999999"
   id="rect89" />
						<rect
   x="313.60999"
   y="106.61"
   class="st33"
   width="58.34"
   height="0.88999999"
   id="rect90" />
						<rect
   x="313.60999"
   y="109.92"
   class="st33"
   width="58.34"
   height="0.88999999"
   id="rect91" />
						<rect
   x="313.60999"
   y="130.52"
   class="st33"
   width="58.34"
   height="0.88999999"
   id="rect92" />
						<rect
   x="313.60999"
   y="133.83"
   class="st33"
   width="58.34"
   height="0.88999999"
   id="rect93" />
						<rect
   x="313.60999"
   y="137.14999"
   class="st33"
   width="58.34"
   height="0.88999999"
   id="rect94" />
					</g>
				</g>
				<path
   class="st9"
   d="m 378.93,521.9 c -3.22,1.61 -41.59,17.66 -62.89,26.98 -4.61,2.01 -8.43,3.72 -10.91,4.89 -1.92,0.9 -3.13,2.83 -3.13,4.95 v 60.91 c 0,-5.24 4.27,-8.77 11.61,-12.32 7.22,-3.49 17.42,-7 29.49,-12.19 24.34,-10.47 40.46,-16.7 40.46,-22.64 0,-5.77 0,-36.66 0,-54.5 -1.45,1.63 -3.07,3.14 -4.63,3.92 z"
   id="path95" />
				<path
   class="st23"
   d="m 383.56,176.82 c 0,-0.52 0,-1.03 0,-1.53 0,-10.1 -6.28,-15.97 -11.61,-19.15 v 27.66 c 3.72,-1.6 6.25,-2.7 6.98,-3.07 1.56,-0.77 3.18,-2.28 4.63,-3.91 z"
   id="path96" />
				<path
   class="st5"
   d="m 378.93,180.74 c -0.73,0.36 -3.26,1.47 -6.98,3.07 -16.29,6.99 -55.47,23.44 -66.82,28.8 -1.92,0.9 -3.13,2.83 -3.13,4.95 v 60.91 c 0,-10.4 16.77,-14.04 41.1,-24.51 11.76,-5.06 21.6,-9.13 28.63,-12.65 7.52,-3.77 11.83,-6.92 11.83,-9.99 0,-5.77 0,-36.66 0,-54.5 -1.45,1.63 -3.07,3.14 -4.63,3.92 z"
   id="path97" />
				<path
   class="st23"
   d="m 301.99,619.63 c 0,6.13 6.38,10.67 11.61,13.37 v -25.69 c -7.34,3.55 -11.61,7.07 -11.61,12.32 z"
   id="path98" />
				<path
   class="st6"
   d="m 378.93,266.03 c -3.22,1.61 -41.59,17.66 -62.89,26.98 -4.61,2.01 -8.43,3.72 -10.91,4.89 -1.92,0.9 -3.13,2.83 -3.13,4.95 v 60.91 c 0,-10.4 16.77,-14.04 41.1,-24.51 11.76,-5.06 21.6,-9.13 28.63,-12.65 7.52,-3.77 11.83,-6.92 11.83,-9.99 0,-5.77 0,-36.66 0,-54.5 -1.45,1.63 -3.07,3.14 -4.63,3.92 z"
   id="path99" />
				<path
   class="st8"
   d="m 378.93,436.61 c -3.22,1.61 -41.59,17.66 -62.89,26.98 -4.61,2.01 -8.43,3.72 -10.91,4.89 -1.92,0.9 -3.13,2.83 -3.13,4.95 v 60.91 c 0,-10.4 16.77,-14.04 41.1,-24.51 11.76,-5.06 21.6,-9.13 28.63,-12.65 7.52,-3.77 11.83,-6.92 11.83,-9.99 0,-5.77 0,-36.66 0,-54.5 -1.45,1.63 -3.07,3.14 -4.63,3.92 z"
   id="path100" />
				<path
   class="st7"
   d="m 378.93,351.32 c -3.22,1.61 -41.59,17.66 -62.89,26.98 -4.61,2.01 -8.43,3.72 -10.91,4.89 -1.92,0.9 -3.13,2.83 -3.13,4.95 v 60.91 c 0,-10.4 16.77,-14.04 41.1,-24.51 11.76,-5.06 21.6,-9.13 28.63,-12.65 7.52,-3.77 11.83,-6.92 11.83,-9.99 0,-5.77 0,-36.66 0,-54.5 -1.45,1.63 -3.07,3.14 -4.63,3.92 z"
   id="path101" />
				<g
   class="st34"
   id="g115">
					<linearGradient
   id="SVGID_10_"
   gradientUnits="userSpaceOnUse"
   x1="301.99469"
   y1="568.80029"
   x2="383.56021"
   y2="568.80029">
						<stop
   offset="0"
   style="stop-color:#FFFFFF;stop-opacity:0"
   id="stop101" />
						<stop
   offset="0.4782"
   style="stop-color:#FFFFFF"
   id="stop102" />
						<stop
   offset="1"
   style="stop-color:#FFFFFF;stop-opacity:0"
   id="stop103" />
					</linearGradient>
					<path
   class="st35"
   d="m 378.93,521.9 c -3.22,1.61 -41.59,17.66 -62.89,26.98 -4.61,2.01 -8.43,3.72 -10.91,4.89 -1.92,0.9 -3.13,2.83 -3.13,4.95 v 60.91 c 0,-5.24 4.27,-8.77 11.61,-12.32 7.22,-3.49 17.42,-7 29.49,-12.19 24.34,-10.47 40.46,-16.7 40.46,-22.64 0,-5.77 0,-36.66 0,-54.5 -1.45,1.63 -3.07,3.14 -4.63,3.92 z"
   id="path103"
   style="fill:url(#SVGID_10_)" />
					<linearGradient
   id="SVGID_11_"
   gradientUnits="userSpaceOnUse"
   x1="301.99469"
   y1="227.64799"
   x2="383.56021"
   y2="227.64799">
						<stop
   offset="0"
   style="stop-color:#FFFFFF;stop-opacity:0"
   id="stop104" />
						<stop
   offset="0.4782"
   style="stop-color:#FFFFFF"
   id="stop105" />
						<stop
   offset="1"
   style="stop-color:#FFFFFF;stop-opacity:0"
   id="stop106" />
					</linearGradient>
					<path
   class="st36"
   d="m 378.93,180.74 c -0.73,0.36 -3.26,1.47 -6.98,3.07 -16.29,6.99 -55.47,23.44 -66.82,28.8 -1.92,0.9 -3.13,2.83 -3.13,4.95 v 60.91 c 0,-10.4 16.77,-14.04 41.1,-24.51 11.76,-5.06 21.6,-9.13 28.63,-12.65 7.52,-3.77 11.83,-6.92 11.83,-9.99 0,-5.77 0,-36.66 0,-54.5 -1.45,1.63 -3.07,3.14 -4.63,3.92 z"
   id="path106"
   style="fill:url(#SVGID_11_)" />
					<linearGradient
   id="SVGID_12_"
   gradientUnits="userSpaceOnUse"
   x1="301.99469"
   y1="312.9361"
   x2="383.56021"
   y2="312.9361">
						<stop
   offset="0"
   style="stop-color:#FFFFFF;stop-opacity:0"
   id="stop107" />
						<stop
   offset="0.4782"
   style="stop-color:#FFFFFF"
   id="stop108" />
						<stop
   offset="1"
   style="stop-color:#FFFFFF;stop-opacity:0"
   id="stop109" />
					</linearGradient>
					<path
   class="st37"
   d="m 378.93,266.03 c -3.22,1.61 -41.59,17.66 -62.89,26.98 -4.61,2.01 -8.43,3.72 -10.91,4.89 -1.92,0.9 -3.13,2.83 -3.13,4.95 v 60.91 c 0,-10.4 16.77,-14.04 41.1,-24.51 11.76,-5.06 21.6,-9.13 28.63,-12.65 7.52,-3.77 11.83,-6.92 11.83,-9.99 0,-5.77 0,-36.66 0,-54.5 -1.45,1.63 -3.07,3.14 -4.63,3.92 z"
   id="path109"
   style="fill:url(#SVGID_12_)" />
					<linearGradient
   id="SVGID_13_"
   gradientUnits="userSpaceOnUse"
   x1="301.99469"
   y1="483.51221"
   x2="383.56021"
   y2="483.51221">
						<stop
   offset="0"
   style="stop-color:#FFFFFF;stop-opacity:0"
   id="stop110" />
						<stop
   offset="0.4782"
   style="stop-color:#FFFFFF"
   id="stop111" />
						<stop
   offset="1"
   style="stop-color:#FFFFFF;stop-opacity:0"
   id="stop112" />
					</linearGradient>
					<path
   class="st38"
   d="m 378.93,436.61 c -3.22,1.61 -41.59,17.66 -62.89,26.98 -4.61,2.01 -8.43,3.72 -10.91,4.89 -1.92,0.9 -3.13,2.83 -3.13,4.95 v 60.91 c 0,-10.4 16.77,-14.04 41.1,-24.51 11.76,-5.06 21.6,-9.13 28.63,-12.65 7.52,-3.77 11.83,-6.92 11.83,-9.99 0,-5.77 0,-36.66 0,-54.5 -1.45,1.63 -3.07,3.14 -4.63,3.92 z"
   id="path112"
   style="fill:url(#SVGID_13_)" />
					<linearGradient
   id="SVGID_14_"
   gradientUnits="userSpaceOnUse"
   x1="301.99469"
   y1="398.22421"
   x2="383.56021"
   y2="398.22421">
						<stop
   offset="0"
   style="stop-color:#FFFFFF;stop-opacity:0"
   id="stop113" />
						<stop
   offset="0.4782"
   style="stop-color:#FFFFFF"
   id="stop114" />
						<stop
   offset="1"
   style="stop-color:#FFFFFF;stop-opacity:0"
   id="stop115" />
					</linearGradient>
					<path
   class="st39"
   d="m 378.93,351.32 c -3.22,1.61 -41.59,17.66 -62.89,26.98 -4.61,2.01 -8.43,3.72 -10.91,4.89 -1.92,0.9 -3.13,2.83 -3.13,4.95 v 60.91 c 0,-10.4 16.77,-14.04 41.1,-24.51 11.76,-5.06 21.6,-9.13 28.63,-12.65 7.52,-3.77 11.83,-6.92 11.83,-9.99 0,-5.77 0,-36.66 0,-54.5 -1.45,1.63 -3.07,3.14 -4.63,3.92 z"
   id="path115"
   style="fill:url(#SVGID_14_)" />
				</g>
			</g>
			<circle
   class="st40"
   cx="522.31"
   cy="265.31"
   r="28.440001"
   id="circle116" />
			<g
   id="g118">
				<g
   id="g117">
					<path
   class="st22"
   d="m 527.39,266.38 c 0,3.67 -1.19,6.83 -3.57,9.46 -2.46,2.73 -5.52,4.1 -9.16,4.1 -3.64,0 -6.69,-1.37 -9.14,-4.1 -2.39,-2.63 -3.59,-5.79 -3.59,-9.46 0,-3.69 1.2,-6.83 3.59,-9.44 2.45,-2.69 5.5,-4.04 9.14,-4.04 3.64,0 6.69,1.35 9.14,4.04 2.4,2.62 3.59,5.77 3.59,9.44 z m -7.92,0 c 0,-1.47 -0.43,-2.74 -1.28,-3.82 -0.91,-1.15 -2.09,-1.73 -3.52,-1.73 -1.47,0 -2.65,0.57 -3.55,1.71 -0.84,1.05 -1.26,2.34 -1.26,3.84 0,1.48 0.42,2.77 1.26,3.87 0.91,1.18 2.09,1.77 3.55,1.77 1.4,0 2.56,-0.6 3.5,-1.82 0.86,-1.1 1.3,-2.38 1.3,-3.82 z"
   id="path116" />
					<path
   class="st22"
   d="m 540.04,278.2 c 0,0.27 -0.12,0.52 -0.36,0.75 -0.24,0.23 -0.51,0.34 -0.79,0.34 -0.68,0 -1.71,0.01 -3.08,0.02 -1.37,0.01 -2.39,0.02 -3.08,0.02 -0.53,0 -0.78,-0.23 -0.77,-0.68 l 0.02,-0.24 c 0.2,-5.44 0.3,-8.74 0.3,-9.89 v -6.34 c 0,-0.4 -0.09,-0.6 -0.28,-0.6 -0.28,0 -0.72,0.08 -1.29,0.26 -0.57,0.18 -1.01,0.26 -1.31,0.26 -0.44,0 -0.66,-0.26 -0.66,-0.79 0,-0.48 -0.01,-1.21 -0.02,-2.18 -0.01,-0.97 -0.02,-1.7 -0.02,-2.2 0,-0.29 0.18,-0.5 0.53,-0.64 2.09,-0.87 3.74,-2.04 4.93,-3.5 0.24,-0.3 0.45,-0.45 0.62,-0.45 0.03,0 0.11,0.01 0.26,0.04 0.54,0.11 1.35,0.29 2.41,0.53 0.57,0.07 1.4,0.2 2.5,0.38 0.2,0.06 0.3,0.21 0.3,0.47 0,0.09 -0.01,0.24 -0.04,0.45 -0.16,1.25 -0.24,4.32 -0.24,9.21 0,1.64 0.01,4.1 0.03,7.39 0.03,3.29 0.04,5.75 0.04,7.39 z"
   id="path117" />
				</g>
			</g>
			<circle
   class="st40"
   cx="522.31"
   cy="357.23999"
   r="28.440001"
   id="circle118" />
			<g
   id="g120">
				<g
   id="g119">
					<path
   class="st22"
   d="m 521.8,358.32 c 0,3.67 -1.19,6.83 -3.57,9.46 -2.46,2.73 -5.52,4.1 -9.16,4.1 -3.64,0 -6.69,-1.37 -9.14,-4.1 -2.39,-2.63 -3.59,-5.79 -3.59,-9.46 0,-3.69 1.2,-6.83 3.59,-9.44 2.45,-2.69 5.5,-4.04 9.14,-4.04 3.64,0 6.69,1.35 9.14,4.04 2.39,2.62 3.59,5.76 3.59,9.44 z m -7.93,0 c 0,-1.47 -0.43,-2.74 -1.28,-3.82 -0.91,-1.15 -2.09,-1.73 -3.52,-1.73 -1.47,0 -2.65,0.57 -3.55,1.71 -0.84,1.05 -1.26,2.34 -1.26,3.84 0,1.48 0.42,2.77 1.26,3.87 0.91,1.18 2.09,1.77 3.55,1.77 1.4,0 2.56,-0.6 3.5,-1.82 0.87,-1.11 1.3,-2.38 1.3,-3.82 z"
   id="path118" />
					<path
   class="st22"
   d="m 545.1,365.13 c 0,0.33 -0.04,0.82 -0.11,1.47 -0.07,0.65 -0.11,1.15 -0.11,1.5 0,0.35 -0.01,0.88 -0.02,1.61 -0.02,0.73 -0.02,1.28 -0.02,1.63 0,0.36 -0.24,0.53 -0.71,0.53 -0.17,0 -0.84,-0.14 -2.01,-0.41 -1.3,-0.28 -3.72,-0.43 -7.26,-0.43 -1.1,0 -2.74,0.06 -4.93,0.18 -2.19,0.12 -3.82,0.18 -4.89,0.18 -0.37,0 -0.58,-0.18 -0.62,-0.53 -0.04,-0.48 -0.15,-1.2 -0.32,-2.16 -0.36,-1.45 -0.53,-2.29 -0.53,-2.5 0,-0.31 0.6,-0.55 1.79,-0.71 1.4,-0.18 2.29,-0.44 2.69,-0.77 1.44,-1.21 2.91,-2.74 4.42,-4.59 1.92,-2.33 2.88,-4.09 2.88,-5.25 0,-1.01 -0.37,-1.86 -1.1,-2.55 -0.73,-0.69 -1.61,-1.04 -2.62,-1.04 -1.14,0 -2.27,0.23 -3.4,0.68 -0.75,0.29 -1.54,0.7 -2.37,1.24 -0.7,0.44 -1.08,0.66 -1.15,0.66 -0.48,0 -0.73,-0.57 -0.73,-1.71 0,-0.88 -0.04,-1.52 -0.11,-1.92 -0.03,-0.18 -0.14,-0.57 -0.32,-1.15 -0.17,-0.5 -0.26,-0.87 -0.26,-1.11 0,-0.19 0.12,-0.36 0.36,-0.53 1.18,-0.84 2.76,-1.5 4.74,-1.99 1.77,-0.43 3.48,-0.64 5.15,-0.64 2.71,0 4.97,0.6 6.79,1.79 2.15,1.4 3.22,3.38 3.22,5.96 0,3.43 -2.6,7.44 -7.79,12.03 3.69,-0.18 6.58,-0.28 8.67,-0.28 0.46,0.02 0.67,0.29 0.67,0.81 z"
   id="path119" />
				</g>
			</g>
			<circle
   class="st40"
   cx="522.31"
   cy="449.17999"
   r="28.440001"
   id="circle120" />
			<g
   id="g122">
				<g
   id="g121">
					<path
   class="st22"
   d="m 523.2,450.25 c 0,3.67 -1.19,6.83 -3.57,9.46 -2.46,2.73 -5.52,4.1 -9.16,4.1 -3.64,0 -6.69,-1.37 -9.14,-4.1 -2.39,-2.63 -3.59,-5.79 -3.59,-9.46 0,-3.69 1.2,-6.83 3.59,-9.44 2.45,-2.69 5.5,-4.04 9.14,-4.04 3.64,0 6.69,1.35 9.14,4.04 2.39,2.62 3.59,5.77 3.59,9.44 z m -7.93,0 c 0,-1.47 -0.43,-2.74 -1.28,-3.82 -0.91,-1.15 -2.09,-1.73 -3.52,-1.73 -1.47,0 -2.65,0.57 -3.55,1.71 -0.84,1.05 -1.26,2.34 -1.26,3.84 0,1.48 0.42,2.77 1.26,3.87 0.91,1.18 2.09,1.77 3.55,1.77 1.4,0 2.56,-0.6 3.5,-1.82 0.87,-1.1 1.3,-2.38 1.3,-3.82 z"
   id="path120" />
					<path
   class="st22"
   d="m 544.85,455.85 c 0,2.63 -1.09,4.66 -3.27,6.09 -1.85,1.22 -4.17,1.84 -6.94,1.84 -2.14,0 -3.9,-0.15 -5.28,-0.45 -3,-0.63 -4.51,-1.18 -4.51,-1.67 0,-0.09 0.03,-0.21 0.09,-0.38 0.2,-0.53 0.49,-1.32 0.88,-2.37 0.11,-0.53 0.31,-1.31 0.6,-2.35 0.13,-0.36 0.34,-0.53 0.64,-0.53 -0.04,0 0.59,0.23 1.91,0.7 1.32,0.47 2.4,0.71 3.24,0.71 2.79,0 4.19,-0.93 4.19,-2.8 0,-1.5 -1.32,-2.24 -3.97,-2.24 -0.36,0 -0.83,0.01 -1.41,0.04 -0.58,0.03 -0.97,0.04 -1.15,0.04 -0.87,0 -1.35,-0.01 -1.43,-0.02 -0.63,-0.07 -0.94,-0.31 -0.94,-0.73 0,-2.18 0.09,-3.55 0.26,-4.1 0.11,-0.36 0.34,-0.53 0.68,-0.53 0.48,0 1.2,0.06 2.15,0.18 0.95,0.12 1.66,0.18 2.13,0.18 0.61,0 1.12,-0.2 1.53,-0.61 0.41,-0.41 0.61,-0.92 0.61,-1.55 0,-1.68 -1.22,-2.52 -3.67,-2.52 -1.02,0 -2.41,0.28 -4.17,0.83 -0.07,0.01 -0.14,0.02 -0.19,0.02 -0.19,0 -0.34,-0.2 -0.47,-0.6 -0.03,-0.6 -0.07,-1.28 -0.13,-2.05 -0.01,-0.17 -0.06,-0.51 -0.13,-1.03 -0.06,-0.41 -0.09,-0.75 -0.09,-1 0,-0.75 1.17,-1.34 3.5,-1.75 1.61,-0.29 3.17,-0.43 4.68,-0.43 2.42,0 4.54,0.53 6.37,1.6 2.21,1.28 3.31,3.05 3.31,5.32 0,2.61 -1.18,4.59 -3.54,5.94 1.39,0.47 2.5,1.26 3.32,2.37 0.8,1.12 1.2,2.4 1.2,3.85 z"
   id="path121" />
				</g>
			</g>
			<circle
   class="st40"
   cx="522.31"
   cy="541.10999"
   r="28.440001"
   id="circle122" />
			<g
   id="g124">
				<g
   id="g123">
					<path
   class="st22"
   d="m 521.8,542.19 c 0,3.67 -1.19,6.83 -3.57,9.46 -2.46,2.73 -5.52,4.1 -9.16,4.1 -3.64,0 -6.69,-1.37 -9.14,-4.1 -2.39,-2.63 -3.59,-5.79 -3.59,-9.46 0,-3.69 1.2,-6.83 3.59,-9.44 2.45,-2.69 5.5,-4.04 9.14,-4.04 3.64,0 6.69,1.35 9.14,4.04 2.39,2.62 3.59,5.77 3.59,9.44 z m -7.93,0 c 0,-1.47 -0.43,-2.74 -1.28,-3.82 -0.91,-1.15 -2.09,-1.73 -3.52,-1.73 -1.47,0 -2.65,0.57 -3.55,1.71 -0.84,1.05 -1.26,2.34 -1.26,3.84 0,1.48 0.42,2.77 1.26,3.87 0.91,1.18 2.09,1.77 3.55,1.77 1.4,0 2.56,-0.6 3.5,-1.82 0.87,-1.11 1.3,-2.38 1.3,-3.82 z"
   id="path122" />
					<path
   class="st22"
   d="m 546.17,550.28 c 0,0.21 -0.18,0.36 -0.54,0.43 -0.26,0.04 -0.61,0.05 -1.07,0.02 -0.64,-0.04 -0.91,-0.06 -0.81,-0.06 -0.56,0 -0.83,0.28 -0.83,0.83 0,0.34 0.02,0.86 0.06,1.55 0.04,0.69 0.06,1.21 0.06,1.55 0,0.5 -0.22,0.75 -0.66,0.75 -4.91,0 -7.5,-0.06 -7.75,-0.18 -0.26,-0.12 -0.38,-0.27 -0.38,-0.46 0,-0.21 0.09,-0.74 0.27,-1.58 0.18,-0.84 0.27,-1.45 0.27,-1.84 0,-0.47 -0.26,-0.71 -0.79,-0.71 -0.96,0 -2.38,0.03 -4.28,0.08 -1.9,0.06 -3.33,0.09 -4.28,0.09 -1.14,0 -1.71,-0.45 -1.71,-1.35 0,-0.46 -0.01,-1.14 -0.02,-2.04 -0.01,-0.9 -0.02,-1.58 -0.02,-2.04 0,-0.43 0.22,-0.88 0.66,-1.35 2.08,-2.22 3.6,-4 4.55,-5.34 0.46,-0.64 2,-3.14 4.63,-7.5 0.34,-0.66 0.9,-1.55 1.67,-2.69 0.2,-0.24 0.41,-0.36 0.64,-0.36 0.34,0 1.4,0.26 3.17,0.77 1.77,0.51 2.98,0.77 3.62,0.77 0.46,0 0.68,0.29 0.68,0.88 0,0.55 -0.06,1.39 -0.19,2.51 -0.13,1.12 -0.19,1.96 -0.19,2.53 v 8.99 c 0.27,0 0.74,-0.04 1.41,-0.13 0.6,-0.09 1.06,-0.13 1.39,-0.13 0.27,0 0.41,0.16 0.41,0.49 0,0.3 -0.02,0.75 -0.05,1.35 -0.04,0.6 -0.05,1.05 -0.05,1.37 0,0.31 0.03,0.78 0.07,1.4 0.03,0.62 0.06,1.09 0.06,1.4 z m -10.55,-13.5 c 0,-0.08 -0.05,-0.13 -0.15,-0.13 -0.13,0 -0.26,0.09 -0.38,0.28 -0.91,1.47 -1.82,2.93 -2.73,4.4 -1.1,1.7 -2.16,3.05 -3.2,4.08 0.78,0 2.78,-0.1 5.98,-0.3 0.03,-0.57 0.13,-1.97 0.3,-4.21 0.11,-1.76 0.18,-3.13 0.18,-4.12 z"
   id="path123" />
				</g>
			</g>
			<circle
   class="st40"
   cx="522.31"
   cy="633.04999"
   r="28.440001"
   id="circle124" />
			<g
   id="g126">
				<g
   id="g125">
					<path
   class="st22"
   d="m 523.2,634.13 c 0,3.67 -1.19,6.83 -3.57,9.46 -2.46,2.73 -5.52,4.1 -9.16,4.1 -3.64,0 -6.69,-1.37 -9.14,-4.1 -2.39,-2.63 -3.59,-5.79 -3.59,-9.46 0,-3.69 1.2,-6.83 3.59,-9.44 2.45,-2.69 5.5,-4.04 9.14,-4.04 3.64,0 6.69,1.35 9.14,4.04 2.39,2.62 3.59,5.76 3.59,9.44 z m -7.93,0 c 0,-1.47 -0.43,-2.74 -1.28,-3.82 -0.91,-1.15 -2.09,-1.73 -3.52,-1.73 -1.47,0 -2.65,0.57 -3.55,1.71 -0.84,1.05 -1.26,2.34 -1.26,3.84 0,1.48 0.42,2.77 1.26,3.87 0.91,1.18 2.09,1.77 3.55,1.77 1.4,0 2.56,-0.6 3.5,-1.82 0.87,-1.11 1.3,-2.39 1.3,-3.82 z"
   id="path124" />
					<path
   class="st22"
   d="m 545.33,638.1 c 0,6.37 -3.92,9.55 -11.77,9.55 -1.14,0 -2.66,-0.12 -4.57,-0.36 -2.48,-0.31 -3.78,-0.69 -3.91,-1.13 -0.06,-0.18 -0.09,-0.82 -0.09,-1.9 0,-0.6 0.07,-1.4 0.21,-2.39 0.18,-1.28 0.4,-1.92 0.64,-1.92 0.07,0 0.19,0.04 0.36,0.13 1.71,0.85 3.65,1.28 5.83,1.28 3.15,0 4.72,-1.03 4.72,-3.08 0,-1.12 -0.58,-1.97 -1.73,-2.54 -0.9,-0.46 -1.97,-0.68 -3.23,-0.68 -0.53,0 -1.31,0.06 -2.36,0.19 -1.05,0.13 -1.83,0.19 -2.36,0.19 -0.5,0 -0.75,-0.23 -0.75,-0.68 0,-1.37 0.06,-3.45 0.18,-6.26 0.12,-2.81 0.18,-4.89 0.18,-6.26 0,-0.27 0.1,-0.55 0.31,-0.84 0.21,-0.29 0.44,-0.47 0.69,-0.52 0.31,-0.06 2.29,-0.08 5.94,-0.08 4.14,0 6.93,0.01 8.35,0.04 0.38,0.01 0.58,0.18 0.58,0.49 0,0.81 -0.09,1.92 -0.26,3.33 -0.21,1.81 -0.47,2.71 -0.77,2.71 l -0.23,-0.02 c -3.22,-0.29 -5.23,-0.43 -6.02,-0.43 -1.57,0 -2.41,0.09 -2.52,0.26 -0.24,0.43 -0.36,1.23 -0.36,2.41 0,0.19 0.04,0.33 0.11,0.43 0.36,0 0.92,-0.04 1.69,-0.11 0.73,-0.07 1.29,-0.11 1.69,-0.11 2.65,0 4.85,0.71 6.6,2.11 1.9,1.5 2.85,3.57 2.85,6.19 z"
   id="path125" />
				</g>
			</g>
			
			
			<g
   id="g261"
   transform="translate(128.84446)">
				<circle
   class="st6"
   cx="798.65997"
   cy="354.56"
   r="21.57"
   id="circle258" />
				<path
   class="st6"
   d="m 781.06,354.56 c 0,-1.57 -2.85,-4.42 -2.85,-2.85 0,1.64 -4.17,1.28 -4.17,2.85 0,1.57 4.17,1.21 4.17,2.85 0,1.57 2.85,-1.28 2.85,-2.85 z"
   id="path259" />
				<line
   class="st42"
   x1="776.03998"
   y1="354.56"
   x2="745.77002"
   y2="354.56"
   id="line259" />
				<linearGradient
   id="SVGID_15_"
   gradientUnits="userSpaceOnUse"
   x1="793.53381"
   y1="350.78241"
   x2="824.11908"
   y2="374.51111">
					<stop
   offset="0"
   style="stop-color:#000000"
   id="stop259" />
					<stop
   offset="0.6978"
   style="stop-color:#000000;stop-opacity:0"
   id="stop260" />
				</linearGradient>
				<circle
   class="st43"
   cx="805.62"
   cy="360.16"
   r="19.35"
   id="circle260"
   style="fill:url(#SVGID_15_)" />
				<path
   class="st6"
   d="m 798.66,384.78 c 16.69,0 30.22,-13.53 30.22,-30.22 0,-16.69 -13.53,-30.22 -30.22,-30.22 -15.73,0 -28.65,12.02 -30.08,27.38 h 6.37 c 1.41,-11.85 11.48,-21.05 23.72,-21.05 13.19,0 23.89,10.7 23.89,23.89 0,13.19 -10.7,23.89 -23.89,23.89 -12.23,0 -22.31,-9.2 -23.72,-21.05 h -6.37 c 1.43,15.36 14.35,27.38 30.08,27.38 z"
   id="path260" />
				<path
   class="st6"
   d="m 744.61,356.97 c -1.28,0 -2.31,-1.04 -2.31,-2.31 0,-1.27 1.04,-2.31 2.31,-2.31 1.27,0 4.01,2.31 4.01,2.31 0,0 -2.73,2.31 -4.01,2.31 z"
   id="path261" />
				<circle
   class="st22"
   cx="798.65997"
   cy="354.56"
   r="19.35"
   id="circle261" />
			</g>
			
			
			<g
   id="g401"
   transform="translate(128.84446)">
				<circle
   class="st7"
   cx="798.65997"
   cy="447.64001"
   r="21.57"
   id="circle398" />
				<path
   class="st7"
   d="m 781.06,447.64 c 0,-1.57 -2.85,-4.42 -2.85,-2.85 0,1.64 -4.17,1.28 -4.17,2.85 0,1.57 4.17,1.21 4.17,2.85 0,1.57 2.85,-1.27 2.85,-2.85 z"
   id="path399" />
				<line
   class="st44"
   x1="776.03998"
   y1="447.64001"
   x2="745.77002"
   y2="447.64001"
   id="line399" />
				<linearGradient
   id="SVGID_16_"
   gradientUnits="userSpaceOnUse"
   x1="793.53381"
   y1="443.8653"
   x2="824.11908"
   y2="467.59399">
					<stop
   offset="0"
   style="stop-color:#000000"
   id="stop399" />
					<stop
   offset="0.6978"
   style="stop-color:#000000;stop-opacity:0"
   id="stop400" />
				</linearGradient>
				<circle
   class="st45"
   cx="805.62"
   cy="453.23999"
   r="19.35"
   id="circle400"
   style="fill:url(#SVGID_16_)" />
				<path
   class="st7"
   d="m 798.66,477.86 c 16.69,0 30.22,-13.53 30.22,-30.22 0,-16.69 -13.53,-30.22 -30.22,-30.22 -15.73,0 -28.65,12.02 -30.08,27.38 h 6.37 c 1.41,-11.85 11.48,-21.05 23.72,-21.05 13.19,0 23.89,10.7 23.89,23.89 0,13.19 -10.7,23.89 -23.89,23.89 -12.23,0 -22.31,-9.2 -23.72,-21.05 h -6.37 c 1.43,15.36 14.35,27.38 30.08,27.38 z"
   id="path400" />
				<path
   class="st7"
   d="m 744.61,450.06 c -1.28,0 -2.31,-1.04 -2.31,-2.31 0,-1.27 1.04,-2.31 2.31,-2.31 1.27,0 4.01,2.31 4.01,2.31 0,0 -2.73,2.31 -4.01,2.31 z"
   id="path401" />
				<circle
   class="st22"
   cx="798.65997"
   cy="447.64001"
   r="19.35"
   id="circle401" />
			</g>
			
			
			<g
   id="g541"
   transform="translate(130.99187)">
				<circle
   class="st8"
   cx="798.65997"
   cy="540.72998"
   r="21.57"
   id="circle538" />
				<path
   class="st8"
   d="m 781.06,540.73 c 0,-1.57 -2.85,-4.42 -2.85,-2.85 0,1.64 -4.17,1.28 -4.17,2.85 0,1.57 4.17,1.21 4.17,2.85 0,1.57 2.85,-1.28 2.85,-2.85 z"
   id="path539" />
				<line
   class="st46"
   x1="776.03998"
   y1="540.72998"
   x2="745.77002"
   y2="540.72998"
   id="line539" />
				<linearGradient
   id="SVGID_17_"
   gradientUnits="userSpaceOnUse"
   x1="793.53381"
   y1="536.94812"
   x2="824.11908"
   y2="560.67688">
					<stop
   offset="0"
   style="stop-color:#000000"
   id="stop539" />
					<stop
   offset="0.6978"
   style="stop-color:#000000;stop-opacity:0"
   id="stop540" />
				</linearGradient>
				<circle
   class="st47"
   cx="805.62"
   cy="546.32001"
   r="19.35"
   id="circle540"
   style="fill:url(#SVGID_17_)" />
				<path
   class="st8"
   d="m 798.66,570.94 c 16.69,0 30.22,-13.53 30.22,-30.22 0,-16.69 -13.53,-30.22 -30.22,-30.22 -15.73,0 -28.65,12.02 -30.08,27.38 h 6.37 c 1.41,-11.85 11.48,-21.05 23.72,-21.05 13.19,0 23.89,10.7 23.89,23.89 0,13.19 -10.7,23.89 -23.89,23.89 -12.23,0 -22.31,-9.2 -23.72,-21.05 h -6.37 c 1.43,15.36 14.35,27.38 30.08,27.38 z"
   id="path540" />
				<path
   class="st8"
   d="m 744.61,543.14 c -1.28,0 -2.31,-1.04 -2.31,-2.31 0,-1.27 1.04,-2.31 2.31,-2.31 1.27,0 4.01,2.31 4.01,2.31 0,0 -2.73,2.31 -4.01,2.31 z"
   id="path541" />
				<circle
   class="st22"
   cx="798.65997"
   cy="540.72998"
   r="19.35"
   id="circle541" />
			</g>
			
			
			<g
   id="g681"
   transform="translate(133.13928)">
				<circle
   class="st9"
   cx="798.65997"
   cy="633.81"
   r="21.57"
   id="circle678" />
				<path
   class="st9"
   d="m 781.06,633.81 c 0,-1.57 -2.85,-4.42 -2.85,-2.85 0,1.64 -4.17,1.28 -4.17,2.85 0,1.57 4.17,1.21 4.17,2.85 0,1.57 2.85,-1.28 2.85,-2.85 z"
   id="path679" />
				<line
   class="st48"
   x1="776.03998"
   y1="633.81"
   x2="745.77002"
   y2="633.81"
   id="line679" />
				<linearGradient
   id="SVGID_18_"
   gradientUnits="userSpaceOnUse"
   x1="793.53381"
   y1="630.03101"
   x2="824.11908"
   y2="653.75983">
					<stop
   offset="0"
   style="stop-color:#000000"
   id="stop679" />
					<stop
   offset="0.6978"
   style="stop-color:#000000;stop-opacity:0"
   id="stop680" />
				</linearGradient>
				<circle
   class="st49"
   cx="805.62"
   cy="639.40002"
   r="19.35"
   id="circle680"
   style="fill:url(#SVGID_18_)" />
				<path
   class="st9"
   d="m 798.66,664.03 c 16.69,0 30.22,-13.53 30.22,-30.22 0,-16.69 -13.53,-30.22 -30.22,-30.22 -15.73,0 -28.65,12.02 -30.08,27.38 h 6.37 c 1.41,-11.85 11.48,-21.05 23.72,-21.05 13.19,0 23.89,10.7 23.89,23.89 0,13.19 -10.7,23.89 -23.89,23.89 -12.23,0 -22.31,-9.2 -23.72,-21.05 h -6.37 c 1.43,15.35 14.35,27.38 30.08,27.38 z"
   id="path680" />
				<path
   class="st9"
   d="m 744.61,636.22 c -1.28,0 -2.31,-1.04 -2.31,-2.31 0,-1.27 1.04,-2.31 2.31,-2.31 1.27,0 4.01,2.31 4.01,2.31 0,0 -2.73,2.31 -4.01,2.31 z"
   id="path681" />
				<circle
   class="st22"
   cx="798.65997"
   cy="633.81"
   r="19.35"
   id="circle681" />
			</g>
			
			
			
			
			
			
			
			
			
		</g>
	</g>
</g>
</svg>
